<?xml version="1.0" standalone="no"?><!DOCTYPE svg PUBLIC "-//W3C//DTD SVG 1.1//EN" "http://www.w3.org/Graphics/SVG/1.1/DTD/svg11.dtd"><svg t="1768295182778" class="icon" viewBox="0 0 1861 1024" version="1.1" xmlns="http://www.w3.org/2000/svg" p-id="4799" xmlns:xlink="http://www.w3.org/1999/xlink" width="363.4765625" height="200"><path d="M484.818259 910.4725v-359.193567c0-9.305533-7.444426-16.749959-16.749959-16.749959h-451.318341c-9.305533 0-16.749959 7.444426-16.749959 16.749959v359.193567c0 9.305533 7.444426 16.749959 16.749959 16.749959h451.318341c8.37498-0.930553 16.749959-8.37498 16.749959-16.749959z" fill="#FFD685" p-id="4800"></path><path d="M0 550.34838v-2.79166 3.722213-0.930553zM484.818259 550.34838V547.55672v2.79166z" fill="#FFD05B" p-id="4801"></path><path d="M186.110656 534.528974h111.666394v54.902644h-111.666394z" fill="#FF7058" p-id="4802"></path><path d="M237.291087 534.528974h10.236086v54.902644h-10.236086z" fill="#ED6952" p-id="4803"></path><path d="M143.305205 782.056147h-79.097029c-8.37498 0-14.888852 6.513873-14.888852 14.888852v79.097029c0 8.37498 6.513873 14.888852 14.888852 14.888853h79.097029c8.37498 0 14.888852-6.513873 14.888853-14.888853v-79.097029c-0.930553-7.444426-7.444426-14.888852-14.888853-14.888852z m6.513873 93.985881c0 3.722213-2.79166 6.513873-6.513873 6.513873h-79.097029c-3.722213 0-6.513873-2.79166-6.513873-6.513873v-79.097029c0-3.722213 2.79166-6.513873 6.513873-6.513873h79.097029c3.722213 0 6.513873 2.79166 6.513873 6.513873v79.097029z" fill="#F5C270" p-id="4804"></path><path d="M87.472008 811.833852l-0.930553-0.930553c-0.930553 0-0.930553-0.930553-1.861106-0.930554s-0.930553 0-1.861107 0.930554c-0.930553 0-0.930553 0.930553-0.930553 0.930553l-13.027746 13.027746c-1.861107 1.861107-1.861107 3.722213 0 5.58332 1.861107 1.861107 3.722213 1.861107 5.583319 0l6.513873-6.513873v34.430471c0 1.861107 1.861107 3.722213 3.722214 3.722213s3.722213-1.861107 3.722213-3.722213v-34.430471l6.513873 6.513873c0.930553 0.930553 1.861107 0.930553 2.79166 0.930553 0.930553 0 1.861107-0.930553 2.791659-0.930553 1.861107-1.861107 1.861107-3.722213 0-5.58332l-13.027746-13.027746zM125.624693 811.833852c-0.930553-0.930553-1.861107-0.930553-2.79166-0.930553s-1.861107 0.930553-2.79166 0.930553l-13.027746 13.027746c-1.861107 1.861107-1.861107 3.722213 0 5.58332 1.861107 1.861107 3.722213 1.861107 5.58332 0l6.513873-6.513873v34.430471c0 1.861107 1.861107 3.722213 3.722213 3.722213s3.722213-1.861107 3.722213-3.722213v-34.430471l6.513873 6.513873c0.930553 0.930553 1.861107 0.930553 2.79166 0.930553 0.930553 0 1.861107-0.930553 2.79166-0.930553 1.861107-1.861107 1.861107-3.722213 0-5.58332l-13.027746-13.027746zM281.957644 782.056147h-79.097029c-8.37498 0-14.888852 6.513873-14.888852 14.888852v79.097029c0 8.37498 6.513873 14.888852 14.888852 14.888853h79.097029c8.37498 0 14.888852-6.513873 14.888853-14.888853v-79.097029c-0.930553-7.444426-7.444426-14.888852-14.888853-14.888852z m6.513873 93.985881c0 3.722213-2.79166 6.513873-6.513873 6.513873h-79.097029c-3.722213 0-6.513873-2.79166-6.513873-6.513873v-79.097029c0-3.722213 2.79166-6.513873 6.513873-6.513873h79.097029c3.722213 0 6.513873 2.79166 6.513873 6.513873v79.097029z" fill="#F5C270" p-id="4805"></path><path d="M259.624365 804.389426h-34.430471c-1.861107 0-3.722213 1.861107-3.722213 3.722213v18.611065c0 10.236086 7.444426 19.541619 17.680512 20.472173v13.027746h-5.583319c-1.861107 0-3.722213 1.861107-3.722214 3.722213s1.861107 3.722213 3.722214 3.722213h18.611065c1.861107 0 3.722213-1.861107 3.722213-3.722213s-1.861107-3.722213-3.722213-3.722213h-5.583319V847.194877c10.236086-1.861107 17.680512-10.236086 17.680512-20.472173v-18.611065c-0.930553-1.861107-2.79166-3.722213-4.652767-3.722213z m-3.722213 22.333278c0 7.444426-5.58332 13.027746-13.027746 13.027746s-13.027746-5.58332-13.027746-13.027746v-14.888852h26.986046v14.888852z" fill="#F5C270" p-id="4806"></path><path d="M420.610083 782.056147h-79.097029c-8.37498 0-14.888852 6.513873-14.888852 14.888852v79.097029c0 8.37498 6.513873 14.888852 14.888852 14.888853h79.097029c8.37498 0 14.888852-6.513873 14.888853-14.888853v-79.097029c-0.930553-7.444426-7.444426-14.888852-14.888853-14.888852z m5.58332 93.985881c0 3.722213-2.79166 6.513873-6.513873 6.513873h-79.097029c-3.722213 0-6.513873-2.79166-6.513873-6.513873v-79.097029c0-3.722213 2.79166-6.513873 6.513873-6.513873h79.097029c3.722213 0 6.513873 2.79166 6.513873 6.513873v79.097029z" fill="#F5C270" p-id="4807"></path><path d="M380.596292 798.806106c-19.541619 0-34.430471 15.819406-34.430471 34.430471 0 1.861107 1.861107 3.722213 3.722213 3.722213h26.986045v26.055492c0 0.930553-0.930553 1.861107-1.861107 1.861107s-1.861107-0.930553-1.861106-1.861107c0-1.861107-1.861107-3.722213-3.722213-3.722213s-3.722213 1.861107-3.722213 3.722213c0 5.58332 4.652766 10.236086 10.236086 10.236086 5.58332 0 10.236086-4.652766 10.236086-10.236086V837.889344h26.986045c1.861107 0 3.722213-1.861107 3.722213-3.722213-0.930553-19.541619-16.749959-35.361025-36.291578-35.361025z m-26.055492 30.708258c1.861107-13.027746 13.027746-23.263832 26.986045-23.263832 13.027746 0 25.124939 10.236086 26.986045 23.263832h-53.97209z" fill="#F5C270" p-id="4808"></path><path d="M288.471517 685.278606h-92.124775c-14.888852 0-26.055492-12.097193-26.055492-26.055492 0-14.888852 12.097193-26.055492 26.055492-26.055492h92.124775c14.888852 0 26.055492 12.097193 26.055492 26.055492 0 14.888852-12.097193 26.055492-26.055492 26.055492z" fill="#E3AA56" p-id="4809"></path><path d="M792.831396 522.431781v-266.138238c0-6.513873-5.58332-12.097193-12.097193-12.097193H446.665575c-6.513873 0-12.097193 5.58332-12.097193 12.097193v266.138238c0 6.513873 5.58332 12.097193 12.097193 12.097193h334.068628c6.513873 0 12.097193-5.58332 12.097193-12.097193z" fill="#FFD685" p-id="4810"></path><path d="M434.568382 256.293543v-1.861107 2.79166-0.930553zM792.831396 256.293543V254.432436v1.861107z" fill="#FFD05B" p-id="4811"></path><path d="M572.290268 244.19635h82.819242v40.944345h-82.819242z" fill="#FF7058" p-id="4812"></path><path d="M609.512399 244.19635h7.444426v40.944345h-7.444426z" fill="#ED6952" p-id="4813"></path><path d="M647.665084 355.862744h-67.93039c-10.236086 0-19.541619-8.37498-19.541619-19.541619 0-10.236086 8.37498-19.541619 19.541619-19.541619h67.93039c10.236086 0 19.541619 8.37498 19.541619 19.541619 0 11.166639-8.37498 19.541619-19.541619 19.541619z" fill="#E3AA56" p-id="4814"></path><path d="M1074.78904 997.944508v-576.012481c0-13.958299-12.097193-26.055492-26.055492-26.055492h-723.970453c-13.958299 0-26.055492 12.097193-26.055492 26.055492v576.012481c0 13.958299 12.097193 26.055492 26.055492 26.055492h723.970453c13.958299 0 26.055492-12.097193 26.055492-26.055492z" fill="#FFE194" p-id="4815"></path><path d="M298.707603 421.932027v-4.652766 6.513873-1.861107zM1074.78904 421.932027V417.279261v4.652766z" fill="#FFD05B" p-id="4816"></path><path d="M597.415207 394.945982h178.666229v88.402562h-178.666229z" fill="#FF7058" p-id="4817"></path><path d="M678.373342 394.945982h16.749959v88.402562h-16.749959z" fill="#ED6952" p-id="4818"></path><path d="M527.62371 793.222786h-126.555246c-13.027746 0-23.263832 10.236086-23.263832 23.263832v126.555247c0 13.027746 10.236086 23.263832 23.263832 23.263832h126.555246c13.027746 0 23.263832-10.236086 23.263832-23.263832v-126.555247c0-12.097193-10.236086-23.263832-23.263832-23.263832z m10.236087 148.888525c0 5.58332-4.652766 10.236086-10.236087 10.236086h-126.555246c-5.58332 0-10.236086-4.652766-10.236086-10.236086v-126.555246c0-5.58332 4.652766-10.236086 10.236086-10.236086h126.555246c5.58332 0 10.236086 4.652766 10.236087 10.236086v126.555246z" fill="#FCD188" p-id="4819"></path><path d="M438.290595 840.681004c-0.930553-0.930553-0.930553-0.930553-1.861106-0.930554s-1.861107-0.930553-2.79166-0.930553c-0.930553 0-1.861107 0-2.79166 0.930553-0.930553 0-1.861107 0.930553-1.861106 0.930554l-21.402726 21.402725c-2.79166 2.79166-2.79166 6.513873 0 8.37498 2.79166 2.79166 6.513873 2.79166 8.37498 0l11.166639-11.16664v54.902644c0 3.722213 2.79166 6.513873 6.513873 6.513873s6.513873-2.79166 6.513873-6.513873v-54.902644l11.166639 11.16664c0.930553 0.930553 2.79166 1.861107 4.652767 1.861106s2.79166-0.930553 4.652766-1.861106c2.79166-2.79166 2.79166-6.513873 0-8.37498l-22.333279-21.402725zM499.707112 840.681004c-0.930553-0.930553-2.79166-1.861107-4.652766-1.861107s-3.722213 0.930553-4.652767 1.861107l-21.402725 21.402725c-2.79166 2.79166-2.79166 6.513873 0 8.37498 2.79166 2.79166 6.513873 2.79166 8.374979 0l11.16664-11.16664v54.902644c0 3.722213 2.79166 6.513873 6.513873 6.513873s6.513873-2.79166 6.513873-6.513873v-54.902644l11.166639 11.16664c0.930553 0.930553 2.79166 1.861107 4.652766 1.861106s2.79166-0.930553 4.652767-1.861106c2.79166-2.79166 2.79166-6.513873 0-8.37498l-22.333279-21.402725zM750.025945 793.222786H623.470698c-13.027746 0-23.263832 10.236086-23.263832 23.263832v126.555247c0 13.027746 10.236086 23.263832 23.263832 23.263832h126.555247c13.027746 0 23.263832-10.236086 23.263832-23.263832v-126.555247c0-12.097193-10.236086-23.263832-23.263832-23.263832z m11.166639 148.888525c0 5.58332-4.652766 10.236086-10.236086 10.236086H623.470698c-5.58332 0-10.236086-4.652766-10.236086-10.236086v-126.555246c0-5.58332 4.652766-10.236086 10.236086-10.236086h126.555247c5.58332 0 10.236086 4.652766 10.236086 10.236086l0.930553 126.555246z" fill="#FCD188" p-id="4820"></path><path d="M714.66492 828.583811h-54.902644c-3.722213 0-6.513873 2.79166-6.513873 6.513873v29.777705c0 16.749959 12.097193 30.708258 27.916599 33.499918v20.472172h-8.37498c-3.722213 0-6.513873 2.79166-6.513873 6.513873 0 3.722213 2.79166 6.513873 6.513873 6.513873h29.777705c3.722213 0 6.513873-2.79166 6.513873-6.513873 0-3.722213-2.79166-6.513873-6.513873-6.513873h-8.374979v-20.472172c15.819406-2.79166 27.916598-16.749959 27.916598-33.499918v-29.777705c-0.930553-3.722213-3.722213-6.513873-7.444426-6.513873z m-6.513873 36.291578c0 12.097193-9.305533 21.402725-21.402725 21.402725s-21.402725-9.305533-21.402726-21.402725v-24.194385h42.805451v24.194385z" fill="#FCD188" p-id="4821"></path><path d="M971.497626 793.222786h-126.555247c-13.027746 0-23.263832 10.236086-23.263832 23.263832v126.555247c0 13.027746 10.236086 23.263832 23.263832 23.263832h126.555247c13.027746 0 23.263832-10.236086 23.263832-23.263832v-126.555247c0-12.097193-11.166639-23.263832-23.263832-23.263832z m10.236086 148.888525c0 5.58332-4.652766 10.236086-10.236086 10.236086h-126.555247c-5.58332 0-10.236086-4.652766-10.236086-10.236086v-126.555246c0-5.58332 4.652766-10.236086 10.236086-10.236086h126.555247c5.58332 0 10.236086 4.652766 10.236086 10.236086v126.555246z" fill="#FCD188" p-id="4822"></path><path d="M908.220002 820.208831c-30.708258 0-55.833197 25.124939-55.833196 55.833197 0 3.722213 2.79166 6.513873 6.513873 6.513873h43.736004v41.874898c0 1.861107-1.861107 3.722213-3.722213 3.722213s-3.722213-1.861107-3.722214-3.722213c0-3.722213-2.79166-6.513873-6.513872-6.513873s-6.513873 2.79166-6.513873 6.513873c0 9.305533 7.444426 16.749959 16.749959 16.749959s16.749959-7.444426 16.749959-16.749959v-41.874898h43.736004c3.722213 0 6.513873-2.79166 6.513873-6.513873-1.861107-30.708258-26.986045-55.833197-57.694304-55.833197z m-42.805451 49.319324c2.79166-21.402725 21.402725-37.222131 42.805451-37.222131s40.013791 15.819406 42.805451 37.222131H865.414551z" fill="#FCD188" p-id="4823"></path><path d="M760.262031 637.820388h-147.957972c-23.263832 0-41.874898-18.611066-41.874898-41.874897s18.611066-41.874898 41.874898-41.874898h147.957972c23.263832 0 41.874898 18.611066 41.874897 41.874898s-18.611066 41.874898-41.874897 41.874897z" fill="#EDB25A" p-id="4824"></path><path d="M1179.011007 1.321944c-30.708258 8.37498-68.860943 81.888689-56.76375 110.73584 23.263832 53.97209 227.055001 71.652603 227.055001 71.652603l45.59711-51.18043s-154.471845-147.957972-215.888361-131.208013z" fill="#E6E9EE" p-id="4825"></path><path d="M1146.441642 107.405018c24.194385 0.930553 139.582992 7.444426 206.582829 54.902644l-13.027746 7.444426s-154.471845-21.402725-194.485636-58.624857c-1.861107-0.930553-0.930553-3.722213 0.930553-3.722213z" fill="#C1C9D4" p-id="4826"></path><path d="M1578.218365 1.321944c30.708258 8.37498 68.860943 81.888689 56.76375 110.73584-23.263832 53.97209-227.055001 71.652603-227.055001 71.652603l-45.59711-51.18043c0.930553 0 154.471845-147.957972 215.888361-131.208013z" fill="#E6E9EE" p-id="4827"></path><path d="M1610.78773 107.405018c-24.194385 0.930553-139.582992 7.444426-206.582829 54.902644l9.305533 7.444426s159.124611-21.402725 199.138402-58.624857c0.930553-0.930553 0-3.722213-1.861106-3.722213z" fill="#C1C9D4" p-id="4828"></path><path d="M1379.079963 114.849444c-30.708258 0-54.902644 24.194385-54.902644 54.902644h109.805287c0-30.708258-25.124939-54.902644-54.902643-54.902644z" fill="#C1C9D4" p-id="4829"></path><path d="M1827.606644 1024h-897.983916c-3.722213 0-5.58332-2.79166-5.58332-5.58332v-732.345432c0-3.722213 2.79166-5.58332 5.58332-5.58332h897.053363c3.722213 0 5.58332 2.79166 5.58332 5.58332v732.345432c0.930553 2.79166-1.861107 5.58332-4.652767 5.58332z" fill="#FA6E56" p-id="4830"></path><path d="M1833.189964 363.30717v-61.416516c0-13.027746-10.236086-23.263832-23.263832-23.263832h-862.622892c-13.027746 0-23.263832 10.236086-23.263832 23.263832v61.416516H1833.189964z" fill="#F1543F" p-id="4831"></path><path d="M1861.106562 313.987846v-122.833033c0-13.027746-10.236086-23.263832-23.263832-23.263832h-918.456088c-13.027746 0-23.263832 10.236086-23.263832 23.263832v122.833033c0 13.027746 10.236086 23.263832 23.263832 23.263832h918.456088c13.027746-0.930553 23.263832-11.166639 23.263832-23.263832z" fill="#FA6E56" p-id="4832"></path><path d="M1314.871786 166.960428h128.416353V1024h-128.416353z" fill="#E6E9EE" p-id="4833"></path><path d="M1314.871786 629.445409h128.416353v163.777377h-128.416353z" fill="#CED5E0" p-id="4834"></path><path d="M924.039408 647.125921H1833.189964v128.416353h-909.150556z" fill="#E6E9EE" p-id="4835"></path></svg>